<?xml version="1.0" encoding="UTF-8"?>
<svg width="100" height="100" viewBox="0 0 100 100" xmlns="http://www.w3.org/2000/svg">
  <g fill="#34953e" opacity="0.2">
    <!-- Ornement floral élégant pour les coins -->
    <path d="M0,0 C10,15 30,25 50,25 C70,25 90,15 100,0 L100,20 C80,30 60,35 50,35 C40,35 20,30 0,20 L0,0 Z"/>
    <path d="M0,0 C15,10 25,30 25,50 C25,70 15,90 0,100 L20,100 C30,80 35,60 35,50 C35,40 30,20 20,0 L0,0 Z"/>
    <!-- Détails délicats pour les coins -->
    <circle cx="10" cy="10" r="2"/>
    <circle cx="20" cy="15" r="1.5"/>
    <circle cx="15" cy="20" r="1"/>
    <circle cx="10" cy="25" r="1.5"/>
    <circle cx="25" cy="10" r="1"/>
    <!-- Feuilles stylisées -->
    <path d="M5,5 C7,8 10,10 15,10 C20,10 23,8 25,5 C23,10 20,15 15,15 C10,15 7,10 5,5 Z"/>
  </g>
</svg>
